<svg xmlns="http://www.w3.org/2000/svg" width="216" height="64" viewBox="0 0 216 64" fill="none">
  <rect width="216" height="64" rx="8" fill="#fff"/>
  <g stroke="#000" stroke-width="2" stroke-linecap="round" stroke-linejoin="round">
    <g transform="translate(12 12)">
      <path d="M8 9l3 3-3 3M13 15h3"/>
      <path d="M3 6a2 2 0 0 1 2-2h14a2 2 0 0 1 2 2v12a2 2 0 0 1-2 2H5a2 2 0 0 1-2-2V6"/>
    </g>
    <g transform="translate(68 12)">
      <path d="M4 5a2 2 0 0 1 2-2h12a2 2 0 0 1 2 2v14a2 2 0 0 1-2 2H6a2 2 0 0 1-2-2V5"/>
      <rect x="8" y="7" width="8" height="3" rx=".35" stroke-width="1.5"/>
      <path d="M8 14v.01M12 14v.01M16 14v.01M8 17v.01M12 17v.01M16 17v.01"/>
    </g>
    <g transform="translate(124 12)">
      <path d="M18 9l3 3-3 3M15 12h6M6 9l-3 3 3 3M3 12h6M9 18l3 3 3-3M12 15v6M15 6l-3-3-3 3M12 3v6"/>
    </g>
    <g transform="translate(180 12)">
      <path d="M10.325 4.317c.426-1.756 2.924-1.756 3.35 0a1.724 1.724 0 0 0 2.573 1.066c1.543-.94 3.31.826 2.37 2.37a1.724 1.724 0 0 0 1.065 2.572c1.756.426 1.756 2.924 0 3.35a1.724 1.724 0 0 0-1.066 2.573c.94 1.543-.826 3.31-2.37 2.37a1.724 1.724 0 0 0-2.572 1.065c-.426 1.756-2.924 1.756-3.35 0a1.724 1.724 0 0 0-2.573-1.066c-1.543.94-3.31-.826-2.37-2.37a1.724 1.724 0 0 0-1.065-2.572c-1.756-.426-1.756-2.924 0-3.35a1.724 1.724 0 0 0 1.066-2.573c-.94-1.543.826-3.31 2.37-2.37 1 .608 2.296.07 2.572-1.065"/>
      <path d="M9 12a3 3 0 1 0 6 0 3 3 0 0 0-6 0"/>
    </g>
  </g>
  <g fill="#000" font-family="Arial, sans-serif" font-size="7" text-anchor="middle">
    <text x="24" y="54">CODEX</text><text x="80" y="54">NUM</text><text x="136" y="54">NAV</text><text x="192" y="54">SYS</text>
  </g>
</svg>
